<svg width="27" height="27" viewBox="0 0 27 27" fill="none" xmlns="http://www.w3.org/2000/svg">
<g id="entypo:chat" clip-path="url(#clip0_89_1832)">
<path id="Vector" d="M7.83 16.47V8.10001H2.7C1.215 8.10001 0 9.31501 0 10.8V18.9C0 20.385 1.215 21.6 2.7 21.6H4.05V25.65L8.1 21.6H14.85C16.335 21.6 17.55 20.385 17.55 18.9V16.443C17.4613 16.4621 17.3708 16.4716 17.28 16.4714H7.83V16.47ZM24.3 1.35001H12.15C10.665 1.35001 9.45 2.56501 9.45 4.05001V14.85H18.9L22.95 18.9V14.85H24.3C25.785 14.85 27 13.6364 27 12.15V4.05001C27 2.56501 25.785 1.35001 24.3 1.35001Z" fill="white"/>
</g>
<defs>
<clipPath id="clip0_89_1832">
<rect width="27" height="27" fill="white"/>
</clipPath>
</defs>
</svg>
