<svg width="150" height="127" viewBox="0 0 150 127" fill="none" xmlns="http://www.w3.org/2000/svg">
<g id="Group">
<g id="Group_2">
<g id="Group_3">
<path id="Vector" d="M0 56.5076C0 54.3208 1.77277 52.548 3.9596 52.548H27.6513C29.8381 52.548 31.6109 54.3208 31.6109 56.5076V122.371C31.6109 124.558 29.8381 126.331 27.6513 126.331H3.9596C1.77277 126.331 0 124.558 0 122.371V56.5076Z" fill="#484F5F" fill-opacity="0.4"/>
</g>
<g id="Group_4">
<path id="Vector_2" d="M39.7139 37.8284C39.7139 35.6415 41.4866 33.8688 43.6735 33.8688H67.3651C69.552 33.8688 71.3247 35.6415 71.3247 37.8284V122.371C71.3247 124.558 69.552 126.331 67.3651 126.331H43.6735C41.4866 126.331 39.7139 124.558 39.7139 122.371V37.8284Z" fill="#484F5F" fill-opacity="0.6"/>
</g>
<g id="Group_5">
<path id="Vector_3" d="M79.4258 70.0926C79.4258 67.9058 81.1986 66.133 83.3854 66.133H107.077C109.264 66.133 111.037 67.9058 111.037 70.0926V122.371C111.037 124.558 109.264 126.331 107.077 126.331H83.3854C81.1986 126.331 79.4258 124.558 79.4258 122.371V70.0926Z" fill="#484F5F" fill-opacity="0.8"/>
</g>
<g id="Group_6">
<path id="Vector_4" d="M117.278 3.9596C117.278 1.77277 119.051 0 121.238 0H145.582C147.768 0 149.541 1.77277 149.541 3.9596V121.701C149.541 123.888 147.768 125.66 145.582 125.66H121.238C119.051 125.66 117.278 123.888 117.278 121.701V3.9596Z" fill="#484F5F"/>
</g>
</g>
</g>
</svg>
