<svg width="15" height="16" viewBox="0 0 15 16" fill="none" xmlns="http://www.w3.org/2000/svg">
<circle cx="7.09069" cy="8.0255" r="6.61797" fill="white" stroke="#484747" stroke-width="0.945425"/>
<path d="M7.78529 11.8799H6.31268V6.38552H7.78529V11.8799ZM6.22635 4.96369C6.22635 4.74365 6.29913 4.56254 6.4447 4.42035C6.59366 4.27817 6.79508 4.20708 7.04898 4.20708C7.29949 4.20708 7.49923 4.27817 7.64818 4.42035C7.79713 4.56254 7.87161 4.74365 7.87161 4.96369C7.87161 5.18712 7.79544 5.36993 7.6431 5.51211C7.49415 5.6543 7.29611 5.72539 7.04898 5.72539C6.80185 5.72539 6.60212 5.6543 6.44978 5.51211C6.30083 5.36993 6.22635 5.18712 6.22635 4.96369Z" fill="#676666"/>
</svg>
