<svg width="37" height="37" viewBox="0 0 37 37" fill="none" xmlns="http://www.w3.org/2000/svg">
<g id="ic:twotone-notifications-none">
<path id="Vector" d="M27.7498 24.6667V16.9584C27.7498 12.2254 25.2369 8.26335 20.8123 7.21502V6.16669C20.8123 4.8871 19.7794 3.85419 18.4998 3.85419C17.2203 3.85419 16.1873 4.8871 16.1873 6.16669V7.21502C11.7782 8.26335 9.24984 12.21 9.24984 16.9584V24.6667L6.1665 27.75V29.2917H30.8332V27.75L27.7498 24.6667ZM24.6665 26.2084H12.3332V16.9584C12.3332 13.135 14.6611 10.0209 18.4998 10.0209C22.3386 10.0209 24.6665 13.135 24.6665 16.9584V26.2084ZM18.4998 33.9167C20.1957 33.9167 21.5832 32.5292 21.5832 30.8334H15.4165C15.4165 32.5292 16.804 33.9167 18.4998 33.9167Z" fill="white"/>
</g>
</svg>
